<svg width="32" height="32" viewBox="0 0 32 32" fill="none" xmlns="http://www.w3.org/2000/svg">
<path d="M7.35233 15.8659H4.86015V4.8936L2 6.54948L2.01673 4.0573L5.52919 2H7.36905L7.35233 15.8659Z" fill="#4ABA79"/>
<path d="M20.0936 12.9221H18.3541V15.8659H15.9456V12.9221H10.1584V11.2328L16.3303 2H18.3541V10.8648H20.0936V12.9221ZM15.9456 10.8648V6.03097L12.7175 10.8648H15.9456Z" fill="#4ABA79"/>
<path d="M29.6899 12.9221H31.4294V10.8648H29.6899V2H27.6661L21.4942 11.2328V12.9221H27.2814V15.8659H29.6899V12.9221ZM27.2814 6.03097V10.8648H24.0533L27.2814 6.03097Z" fill="#4ABA79"/>
<path d="M23.5091 19.3465C23.0029 19.5802 22.6135 19.9112 22.3409 20.3395C22.0761 20.7601 21.9437 21.2429 21.9437 21.7881C21.9437 22.5514 22.1813 23.1627 22.6563 23.6222C23.1314 24.0817 23.8674 24.401 24.8643 24.5802C25.6197 24.7204 26.1493 24.9073 26.4531 25.1409C26.7646 25.3746 26.9204 25.6939 26.9204 26.0989C26.9204 26.5272 26.7724 26.8582 26.4764 27.0919C26.1883 27.3177 25.7638 27.4306 25.2031 27.4306C24.6423 27.4306 24.1789 27.3138 23.8129 27.0802C23.4468 26.8465 23.1937 26.5038 23.0535 26.0521L21.5816 26.7414C21.7919 27.4579 22.2124 28.0109 22.8433 28.4003C23.4741 28.7897 24.2646 28.9844 25.2148 28.9844C25.9001 28.9844 26.5115 28.8598 27.0489 28.6105C27.594 28.3613 28.0146 28.0147 28.3105 27.5708C28.6143 27.1191 28.7662 26.6129 28.7662 26.0521C28.7662 25.1954 28.5169 24.5257 28.0185 24.0428C27.5201 23.5599 26.7218 23.2211 25.6236 23.0264C24.9383 22.9018 24.4593 22.7422 24.1867 22.5475C23.9141 22.3528 23.7778 22.0724 23.7778 21.7063C23.7778 21.3247 23.9063 21.0366 24.1634 20.8419C24.4281 20.6394 24.8215 20.5381 25.3433 20.5381C25.8261 20.5381 26.2077 20.6355 26.4881 20.8302C26.7763 21.0249 26.9943 21.313 27.1423 21.6947L28.6026 21.0171C28.3923 20.3551 28.0068 19.8528 27.4461 19.5101C26.8853 19.1596 26.1688 18.9844 25.2965 18.9844C24.6112 18.9844 24.0154 19.1051 23.5091 19.3465Z" fill="#4ABA79"/>
<path d="M8.43567 20.6783V23.1082H12.1623V24.6503H8.43567V28.8208H6.60156V19.1362H12.431V20.6783H8.43567Z" fill="#4ABA79"/>
<path d="M20.6433 22.2904C20.6433 22.9135 20.5109 23.4626 20.2461 23.9376C19.9814 24.4127 19.6075 24.7827 19.1247 25.0475C18.6496 25.3123 18.0966 25.4447 17.4658 25.4447H15.7485V28.8208H13.9144V19.1362H17.4658C18.0966 19.1362 18.6496 19.2686 19.1247 19.5334C19.6075 19.7982 19.9814 20.1682 20.2461 20.6433C20.5109 21.1183 20.6433 21.6674 20.6433 22.2904ZM18.8092 22.2904C18.8092 21.7375 18.6574 21.313 18.3536 21.0171C18.0499 20.7211 17.6176 20.5732 17.0569 20.5732H15.7485V24.0077H17.0569C17.6176 24.0077 18.0499 23.8598 18.3536 23.5638C18.6574 23.2679 18.8092 22.8434 18.8092 22.2904Z" fill="#4ABA79"/>
</svg>
