<svg width="32" height="32" viewBox="0 0 32 32" fill="none" xmlns="http://www.w3.org/2000/svg">
<path d="M6.18183 2C4.97684 2 4 2.97684 4 4.18183V27.8182C4 29.0232 4.97684 30 6.18183 30H25.8182C27.0232 30 28 29.0232 28 27.8182V10C28 5.58172 24.4183 2 20 2H6.18183ZM9 8H23C23.5523 8 24 8.44772 24 9C24 9.55228 23.5523 10 23 10H9C8.44772 10 8 9.55228 8 9C8 8.44772 8.44772 8 9 8ZM8 15C8 14.4477 8.44772 14 9 14H23C23.5523 14 24 14.4477 24 15C24 15.5523 23.5523 16 23 16H9C8.44772 16 8 15.5523 8 15ZM17.4789 28.012L14 18L24 21.4858L19.4558 22.9384L19.0697 23.0757L18.9324 23.4644L17.4789 28.012Z" fill="#4ABA79"/>
</svg>
