<svg width="32" height="32" viewBox="0 0 32 32" fill="none" xmlns="http://www.w3.org/2000/svg">
<path d="M3.76394 3C2.23746 3 1 4.23746 1 5.76394V16.2361C1 17.7625 2.23746 19 3.76394 19H6V22C6 23.1046 6.89543 24 8 24H28C29.1046 24 30 23.1046 30 22V10C30 8.89543 29.1046 8 28 8H23V5.76394C23 4.23746 21.7625 3 20.2361 3H3.76394ZM21 8H8C6.89543 8 6 8.89543 6 10V17H3.76394C3.34203 17 3 16.658 3 16.2361V5.76394C3 5.34203 3.34203 5 3.76394 5H20.2361C20.658 5 21 5.34203 21 5.76394V8ZM14 11L24 14.4858L19.4558 15.9384L19.0697 16.0757L18.9324 16.4644L17.4789 21.012L14 11Z" fill="#4ABA79"/>
<path d="M11 26C10.4477 26 10 26.4477 10 27C10 27.5523 10.4477 28 11 28H25C25.5523 28 26 27.5523 26 27C26 26.4477 25.5523 26 25 26H11Z" fill="#4ABA79"/>
</svg>
